<?xml version="1.0" encoding="UTF-8"?>
<svg width="111px" height="112px" viewBox="0 0 111 112" version="1.1" xmlns="http://www.w3.org/2000/svg" xmlns:xlink="http://www.w3.org/1999/xlink">
    <!-- Generator: Sketch 53.2 (72643) - https://sketchapp.com -->
    <title>world</title>
    <desc>Created with Sketch.</desc>
    <defs>
        <linearGradient x1="75%" y1="-48.21125%" x2="-21.4220833%" y2="1.78875%" id="linearGradient-1">
            <stop stop-color="#FF7C56" offset="0%"></stop>
            <stop stop-color="#FF5D5D" offset="100%"></stop>
        </linearGradient>
    </defs>
    <g id="Page-1" stroke="none" stroke-width="1" fill="none" fill-rule="evenodd">
        <g id="world">
            <path d="M95.5947,17.395 L89.8584,21.2573 L80.2982,19.3261 L74.562,17.395 L66.9137,19.3261 L61.1775,17.395 L65.0015,9.6703 L72.6497,9.6703 L80.1451,5.8853 C85.9255,8.7723 91.1549,12.6693 95.5947,17.395 Z" id="Path" fill="#414141" fill-rule="nonzero" opacity="0.7"></path>
            <path d="M51.6174,9.6703 L49.7054,15.4639 L43.9692,17.395 L38.2329,27.0508 L28.6727,32.8444 L15.2884,34.7755 L15.2884,40.5691 L19.1125,44.4314 L19.1125,52.1561 L13.3767,48.2936 L7.64043,44.4314 L4.31348,34.3315 C10.04,20.5485 20.9866,9.6528 34.715,4.0698 L40.1452,7.7391 L51.6174,9.6703 Z" id="Path" fill="#414141" fill-rule="nonzero" opacity="0.7"></path>
            <polygon id="Path" fill="#414141" fill-rule="nonzero" opacity="0.7" points="55.4417 63.7429 53.5297 73.3987 45.8814 81.1234 45.8814 86.917 38.2332 92.71 38.2332 102.366 32.4972 100.435 28.6729 90.779 28.6729 71.4676 19.1127 69.5365 15.2887 61.8117 15.2887 56.0181 19.1127 52.1559 24.8489 46.3623 28.6729 54.087 42.0572 54.087 47.7934 63.7429"></polygon>
            <path d="M103.816,28.6535 C114.254,47.4612 113.065,70.6526 100.757,88.2685 L95.5946,83.0544 L95.5946,75.3297 L91.7706,67.605 L87.9466,59.8803 L87.9466,52.1555 L82.2104,48.2933 L74.5621,50.2244 L61.1779,44.4308 L59.2659,30.9127 L65.0021,25.1191 L76.4743,25.1191 L80.2984,30.9127 L91.7706,32.8439 L103.243,28.9816 L103.816,28.6535 Z" id="Path" fill="#414141" fill-rule="nonzero" opacity="0.7"></path>
            <path d="M66.9139,19.326 L74.5621,17.3949 L80.2984,19.326 L89.8586,21.2571 L95.5948,17.3949 C98.7975,20.7802 101.56,24.5633 103.817,28.6535 L103.243,28.9818 L91.7708,32.8441 L80.2986,30.913 L76.4746,25.1194 L65.0023,25.1194 L59.2661,30.913 L61.1781,44.4311 L74.5623,50.2247 L82.2106,48.2935 L87.9468,52.1558 L87.9468,59.8805 L91.7708,67.6052 L95.5948,75.3299 L95.5948,83.0546 L100.757,88.2688 C83.0997,113.54 48.501,119.567 23.4818,101.733 C2.23319,86.5846 -5.73819,58.5575 4.31348,34.3312 L7.64043,44.4311 L13.3767,48.2933 L19.1129,52.1556 L15.2887,56.018 L15.2887,61.8116 L19.1127,69.5363 L28.6729,71.4675 L28.6729,90.779 L32.4969,100.435 L38.2332,102.366 L38.2332,92.71 L45.8814,86.9167 L45.8814,81.1231 L53.5296,73.3984 L55.4416,63.7425 L47.7934,63.7425 L42.0572,54.0867 L28.6729,54.0867 L24.8489,46.362 L19.1127,52.1556 L19.1127,44.4308 L15.2887,40.5688 L15.2887,34.7752 L28.6729,32.8441 L38.2332,27.0505 L43.9694,17.3947 L49.7056,15.4635 L51.6176,9.6699 L40.1454,7.7388 L34.7152,4.0695 C49.4189,-1.91135 65.9542,-1.25094 80.1454,5.8849 L72.6501,9.6699 L65.0019,9.6699 L61.1779,17.3947 L66.9139,19.326 Z" id="Path" fill="#2E2E2E" fill-rule="nonzero" opacity="0.7"></path>
            <path d="M71.5,32 C73.1569,32 74.5,30.6569 74.5,29 C74.5,27.3431 73.1569,26 71.5,26 C69.8431,26 68.5,27.3431 68.5,29 C68.5,30.6569 69.8431,32 71.5,32 Z" id="Path" fill="#FF7671"></path>
            <path d="M71.5,32 C73.1569,32 74.5,30.6569 74.5,29 C74.5,27.3431 73.1569,26 71.5,26 C69.8431,26 68.5,27.3431 68.5,29 C68.5,30.6569 69.8431,32 71.5,32 Z" id="Path" fill="#FF7671"></path>
            <path d="M71.5,41 C78.1274,41 83.5,35.6274 83.5,29 C83.5,22.3726 78.1274,17 71.5,17 C64.8726,17 59.5,22.3726 59.5,29 C59.5,35.6274 64.8726,41 71.5,41 Z" id="Path" fill="#FF7671" opacity="0.173479"></path>
            <g id="Group" opacity="0.173479" transform="translate(59.000000, 17.000000)" fill="url(#linearGradient-1)">
                <path d="M12.5,24 C19.1274,24 24.5,18.6274 24.5,12 C24.5,5.3726 19.1274,0 12.5,0 C5.8726,0 0.5,5.3726 0.5,12 C0.5,18.6274 5.8726,24 12.5,24 Z" id="Path"></path>
            </g>
            <path d="M24.5,89 C29.4706,89 33.5,84.9706 33.5,80 C33.5,75.0294 29.4706,71 24.5,71 C19.5294,71 15.5,75.0294 15.5,80 C15.5,84.9706 19.5294,89 24.5,89 Z" id="Path" fill="#FF7671" opacity="0.173479"></path>
            <path d="M24.5,83 C26.1569,83 27.5,81.6569 27.5,80 C27.5,78.3431 26.1569,77 24.5,77 C22.8431,77 21.5,78.3431 21.5,80 C21.5,81.6569 22.8431,83 24.5,83 Z" id="Path" fill="#FF7671"></path>
            <path d="M24.5,83 C26.1569,83 27.5,81.6569 27.5,80 C27.5,78.3431 26.1569,77 24.5,77 C22.8431,77 21.5,78.3431 21.5,80 C21.5,81.6569 22.8431,83 24.5,83 Z" id="Path" fill="#FF7671"></path>
            <path d="M21.5,43 C26.4706,43 30.5,38.9706 30.5,34 C30.5,29.0294 26.4706,25 21.5,25 C16.5294,25 12.5,29.0294 12.5,34 C12.5,38.9706 16.5294,43 21.5,43 Z" id="Path" fill="#FF7671" opacity="0.173479"></path>
            <path d="M54.5,77 C61.6797,77 67.5,71.1797 67.5,64 C67.5,56.8203 61.6797,51 54.5,51 C47.3203,51 41.5,56.8203 41.5,64 C41.5,71.1797 47.3203,77 54.5,77 Z" id="Path" fill="#FF7671" opacity="0.173479"></path>
            <path d="M89.5,74 C92.8137,74 95.5,71.3137 95.5,68 C95.5,64.6863 92.8137,62 89.5,62 C86.1863,62 83.5,64.6863 83.5,68 C83.5,71.3137 86.1863,74 89.5,74 Z" id="Path" fill="#FF7671" opacity="0.173479"></path>
            <path d="M54.5,67 C56.1569,67 57.5,65.6569 57.5,64 C57.5,62.3431 56.1569,61 54.5,61 C52.8431,61 51.5,62.3431 51.5,64 C51.5,65.6569 52.8431,67 54.5,67 Z" id="Path" fill="#FF7671"></path>
            <path d="M20.5,37 C22.1569,37 23.5,35.6569 23.5,34 C23.5,32.3431 22.1569,31 20.5,31 C18.8431,31 17.5,32.3431 17.5,34 C17.5,35.6569 18.8431,37 20.5,37 Z" id="Path" fill="#FF7671"></path>
            <path d="M21.5,37 C23.1569,37 24.5,35.6569 24.5,34 C24.5,32.3431 23.1569,31 21.5,31 C19.8431,31 18.5,32.3431 18.5,34 C18.5,35.6569 19.8431,37 21.5,37 Z" id="Path" fill="#FF7671"></path>
            <path d="M54.5,67 C56.1569,67 57.5,65.6569 57.5,64 C57.5,62.3431 56.1569,61 54.5,61 C52.8431,61 51.5,62.3431 51.5,64 C51.5,65.6569 52.8431,67 54.5,67 Z" id="Path" fill="#FF7671"></path>
            <path d="M89.5,71 C91.1569,71 92.5,69.6569 92.5,68 C92.5,66.3431 91.1569,65 89.5,65 C87.8431,65 86.5,66.3431 86.5,68 C86.5,69.6569 87.8431,71 89.5,71 Z" id="Path" fill="#FF7671"></path>
            <path d="M89.5,71 C91.1569,71 92.5,69.6569 92.5,68 C92.5,66.3431 91.1569,65 89.5,65 C87.8431,65 86.5,66.3431 86.5,68 C86.5,69.6569 87.8431,71 89.5,71 Z" id="Path" fill="#FF7671"></path>
        </g>
    </g>
</svg>