<svg width="111" height="123" fill="none" xmlns="http://www.w3.org/2000/svg"><path opacity=".7" d="M95.595 28.395l-5.737 3.862-9.56-1.93-5.736-1.932-7.648 1.931-5.736-1.931L65 20.67h7.649l7.495-3.785a54.8 54.8 0 0 1 15.45 11.51zM51.617 20.67l-1.912 5.794-5.736 1.931-5.736 9.656-9.56 5.793-13.385 1.931v5.794l3.825 3.862v7.725l-5.736-3.862L7.64 55.43l-3.327-10.1C10.04 31.548 20.987 20.653 34.715 15.07l5.43 3.67 11.472 1.93z" fill="#414141"/><path opacity=".7" d="M55.442 74.743l-1.912 9.656-7.649 7.724v5.794l-7.648 5.793v9.656l-5.736-1.931-3.824-9.656V82.468l-9.56-1.931-3.824-7.725v-5.794l3.824-3.862 5.736-5.794 3.824 7.725h13.384l5.736 9.656h7.649zM103.816 39.654c10.438 18.807 9.249 41.999-3.059 59.614l-5.162-5.214V86.33l-3.824-7.725-3.824-7.725v-7.724l-5.737-3.863-7.648 1.931-13.384-5.793-1.912-13.518 5.736-5.794h11.472l3.824 5.794 11.473 1.93 11.472-3.861.573-.328z" fill="#414141"/><path opacity=".7" d="M66.914 30.326l7.648-1.931 5.736 1.931 9.56 1.931 5.737-3.862a55.15 55.15 0 0 1 8.222 11.259l-.574.328-11.472 3.862-11.472-1.931-3.824-5.794H65.002l-5.736 5.794 1.912 13.518 13.384 5.794 7.649-1.931 5.736 3.862v7.724l3.824 7.725 3.824 7.725v7.725l5.162 5.214C83.1 124.54 48.501 130.567 23.482 112.733 2.233 97.585-5.738 69.558 4.313 45.331l3.327 10.1 5.737 3.862 5.736 3.863-3.824 3.862v5.794l3.824 7.724 9.56 1.931v19.312l3.824 9.656 5.736 1.931v-9.656l7.648-5.793v-5.794l7.649-7.725 1.912-9.655h-7.649l-5.736-9.656H28.673l-3.824-7.725-5.736 5.794V55.43l-3.824-3.862v-5.794l13.384-1.93 9.56-5.794 5.736-9.656 5.737-1.931 1.912-5.794-11.473-1.931-5.43-3.67a54.955 54.955 0 0 1 45.43 1.816L72.65 20.67h-7.648l-3.824 7.725 5.736 1.931z" fill="#2E2E2E"/><path fill-rule="evenodd" clip-rule="evenodd" d="M71.5 43a3 3 0 1 0 0-6 3 3 0 0 0 0 6z" fill="#FF7671"/><g filter="url(#filter0_f)"><path fill-rule="evenodd" clip-rule="evenodd" d="M71.5 43a3 3 0 1 0 0-6 3 3 0 0 0 0 6z" fill="#FF7671"/></g><path opacity=".173" fill-rule="evenodd" clip-rule="evenodd" d="M71.5 52c6.627 0 12-5.373 12-12s-5.373-12-12-12-12 5.373-12 12 5.373 12 12 12z" fill="#FF7671"/><g opacity=".173" filter="url(#filter1_f)"><path fill-rule="evenodd" clip-rule="evenodd" d="M71.5 52c6.627 0 12-5.373 12-12s-5.373-12-12-12-12 5.373-12 12 5.373 12 12 12z" fill="url(#paint0_linear)"/></g><path opacity=".173" fill-rule="evenodd" clip-rule="evenodd" d="M24.5 100a9 9 0 1 0 0-18 9 9 0 0 0 0 18z" fill="#FF7671"/><path fill-rule="evenodd" clip-rule="evenodd" d="M24.5 94a3 3 0 1 0 0-6 3 3 0 0 0 0 6z" fill="#FF7671"/><g filter="url(#filter2_f)"><path fill-rule="evenodd" clip-rule="evenodd" d="M24.5 94a3 3 0 1 0 0-6 3 3 0 0 0 0 6z" fill="#FF7671"/></g><path opacity=".173" fill-rule="evenodd" clip-rule="evenodd" d="M21.5 54a9 9 0 1 0 0-18 9 9 0 0 0 0 18zM54.5 88c7.18 0 13-5.82 13-13s-5.82-13-13-13-13 5.82-13 13 5.82 13 13 13zM89.5 85a6 6 0 1 0 0-12 6 6 0 0 0 0 12z" fill="#FF7671"/><path fill-rule="evenodd" clip-rule="evenodd" d="M54.5 78a3 3 0 1 0 0-6 3 3 0 0 0 0 6zM20.5 48a3 3 0 1 0 0-6 3 3 0 0 0 0 6z" fill="#FF7671"/><g filter="url(#filter3_f)"><path fill-rule="evenodd" clip-rule="evenodd" d="M21.5 48a3 3 0 1 0 0-6 3 3 0 0 0 0 6z" fill="#FF7671"/></g><g filter="url(#filter4_f)"><path fill-rule="evenodd" clip-rule="evenodd" d="M54.5 78a3 3 0 1 0 0-6 3 3 0 0 0 0 6z" fill="#FF7671"/></g><path fill-rule="evenodd" clip-rule="evenodd" d="M89.5 82a3 3 0 1 0 0-6 3 3 0 0 0 0 6z" fill="#FF7671"/><g filter="url(#filter5_f)"><path fill-rule="evenodd" clip-rule="evenodd" d="M89.5 82a3 3 0 1 0 0-6 3 3 0 0 0 0 6z" fill="#FF7671"/></g><defs><filter id="filter0_f" x="63.063" y="31.563" width="16.873" height="16.873" filterUnits="userSpaceOnUse" color-interpolation-filters="sRGB"><feFlood flood-opacity="0" result="BackgroundImageFix"/><feBlend in="SourceGraphic" in2="BackgroundImageFix" result="shape"/><feGaussianBlur stdDeviation="2.718" result="effect1_foregroundBlur"/></filter><filter id="filter1_f" x="32.317" y=".817" width="78.366" height="78.366" filterUnits="userSpaceOnUse" color-interpolation-filters="sRGB"><feFlood flood-opacity="0" result="BackgroundImageFix"/><feBlend in="SourceGraphic" in2="BackgroundImageFix" result="shape"/><feGaussianBlur stdDeviation="13.591" result="effect1_foregroundBlur"/></filter><filter id="filter2_f" x="16.063" y="82.563" width="16.873" height="16.873" filterUnits="userSpaceOnUse" color-interpolation-filters="sRGB"><feFlood flood-opacity="0" result="BackgroundImageFix"/><feBlend in="SourceGraphic" in2="BackgroundImageFix" result="shape"/><feGaussianBlur stdDeviation="2.718" result="effect1_foregroundBlur"/></filter><filter id="filter3_f" x="13.063" y="36.563" width="16.873" height="16.873" filterUnits="userSpaceOnUse" color-interpolation-filters="sRGB"><feFlood flood-opacity="0" result="BackgroundImageFix"/><feBlend in="SourceGraphic" in2="BackgroundImageFix" result="shape"/><feGaussianBlur stdDeviation="2.718" result="effect1_foregroundBlur"/></filter><filter id="filter4_f" x="46.063" y="66.563" width="16.873" height="16.873" filterUnits="userSpaceOnUse" color-interpolation-filters="sRGB"><feFlood flood-opacity="0" result="BackgroundImageFix"/><feBlend in="SourceGraphic" in2="BackgroundImageFix" result="shape"/><feGaussianBlur stdDeviation="2.718" result="effect1_foregroundBlur"/></filter><filter id="filter5_f" x="81.063" y="70.563" width="16.873" height="16.873" filterUnits="userSpaceOnUse" color-interpolation-filters="sRGB"><feFlood flood-opacity="0" result="BackgroundImageFix"/><feBlend in="SourceGraphic" in2="BackgroundImageFix" result="shape"/><feGaussianBlur stdDeviation="2.718" result="effect1_foregroundBlur"/></filter><linearGradient id="paint0_linear" x1="77.5" y1="16.429" x2="54.359" y2="28.429" gradientUnits="userSpaceOnUse"><stop stop-color="#FF7C56"/><stop offset="1" stop-color="#FF5D5D"/></linearGradient></defs></svg>
