<svg width="113" height="113" fill="none" xmlns="http://www.w3.org/2000/svg"><path opacity=".7" d="M56.5 111.915c31.056 0 56.232-24.93 56.232-55.682C112.732 25.481 87.556.552 56.5.552S.268 25.482.268 56.233c0 30.753 25.176 55.682 56.232 55.682z" fill="#2E2E2E"/><path opacity=".7" d="M56.5 102.231c25.655 0 46.453-20.594 46.453-45.998 0-25.404-20.798-45.998-46.453-45.998-25.655 0-46.453 20.594-46.453 45.998 0 25.404 20.798 45.998 46.453 45.998z" fill="#2E2E2E"/><path opacity=".2" d="M82.432 81.911c6.636-6.571 10.742-15.65 10.742-25.678 0-20.055-16.42-36.314-36.674-36.314v36.314l25.932 25.678z" fill="url(#paint0_linear)"/><path d="M56.5 15.077c-1.35 0-2.445 1.084-2.445 2.421v4.842c0 1.337 1.095 2.421 2.445 2.421 1.35 0 2.445-1.084 2.445-2.42v-4.843c0-1.337-1.095-2.42-2.445-2.42zM56.5 87.706c-1.35 0-2.445 1.084-2.445 2.42v4.843c0 1.336 1.095 2.42 2.445 2.42 1.35 0 2.445-1.084 2.445-2.42v-4.842c0-1.337-1.095-2.421-2.445-2.421zM98.063 56.233c0-1.337-1.095-2.421-2.445-2.421h-4.89c-1.35 0-2.444 1.084-2.444 2.421 0 1.337 1.094 2.421 2.444 2.421h4.89c1.35 0 2.445-1.084 2.445-2.42zM24.716 56.233c0-1.337-1.095-2.421-2.445-2.421h-4.89c-1.35 0-2.444 1.084-2.444 2.421 0 1.337 1.094 2.421 2.444 2.421h4.89c1.35 0 2.445-1.084 2.445-2.42zM35.718 91.876a2.458 2.458 0 0 0 3.34-.886l2.445-4.194a2.408 2.408 0 0 0-.895-3.307 2.458 2.458 0 0 0-3.34.886l-2.444 4.193a2.408 2.408 0 0 0 .895 3.308zM72.392 28.977a2.458 2.458 0 0 0 3.34-.886l2.445-4.193a2.408 2.408 0 0 0-.895-3.307 2.458 2.458 0 0 0-3.34.886l-2.445 4.194a2.408 2.408 0 0 0 .895 3.306zM20.505 35.655a2.408 2.408 0 0 0 .895 3.307l4.235 2.421a2.458 2.458 0 0 0 3.34-.886 2.408 2.408 0 0 0-.896-3.307l-4.234-2.421a2.458 2.458 0 0 0-3.34.886zM84.025 71.97a2.408 2.408 0 0 0 .895 3.307l4.235 2.42a2.458 2.458 0 0 0 3.34-.885 2.408 2.408 0 0 0-.895-3.307l-4.235-2.421a2.458 2.458 0 0 0-3.34.886zM77.281 91.876a2.458 2.458 0 0 1-3.34-.886l-2.444-4.194a2.408 2.408 0 0 1 .894-3.307 2.458 2.458 0 0 1 3.34.886l2.445 4.193a2.408 2.408 0 0 1-.895 3.308zM40.608 28.977a2.458 2.458 0 0 1-3.34-.886l-2.444-4.193a2.408 2.408 0 0 1 .895-3.307 2.458 2.458 0 0 1 3.34.886l2.444 4.194a2.408 2.408 0 0 1-.895 3.306zM92.495 35.655a2.408 2.408 0 0 1-.895 3.307l-4.235 2.421a2.458 2.458 0 0 1-3.34-.886 2.408 2.408 0 0 1 .895-3.307l4.235-2.421a2.458 2.458 0 0 1 3.34.886zM28.974 71.97a2.408 2.408 0 0 1-.894 3.307l-4.235 2.42a2.458 2.458 0 0 1-3.34-.885 2.408 2.408 0 0 1 .896-3.307l4.234-2.421a2.458 2.458 0 0 1 3.34.886z" fill="#414141"/><path d="M83.394 85.285a2.449 2.449 0 0 1-1.729-.71L49.882 53.104a2.404 2.404 0 0 1 0-3.424 2.461 2.461 0 0 1 3.457 0l31.784 31.473a2.403 2.403 0 0 1 0 3.423 2.45 2.45 0 0 1-1.73.71z" fill="#FF7671"/><g filter="url(#filter0_f)"><path d="M83.394 85.285a2.449 2.449 0 0 1-1.729-.71L49.882 53.104a2.404 2.404 0 0 1 0-3.424 2.461 2.461 0 0 1 3.457 0l31.784 31.473a2.403 2.403 0 0 1 0 3.423 2.45 2.45 0 0 1-1.73.71z" fill="url(#paint1_linear)"/></g><path d="M56.5 61.075c2.7 0 4.89-2.168 4.89-4.842 0-2.674-2.19-4.841-4.89-4.841-2.7 0-4.89 2.167-4.89 4.841 0 2.675 2.19 4.842 4.89 4.842z" fill="#414141"/><defs><filter id="filter0_f" x="30.138" y="29.942" width="74.729" height="74.371" filterUnits="userSpaceOnUse" color-interpolation-filters="sRGB"><feFlood flood-opacity="0" result="BackgroundImageFix"/><feBlend in="SourceGraphic" in2="BackgroundImageFix" result="shape"/><feGaussianBlur stdDeviation="9.514" result="effect1_foregroundBlur"/></filter><linearGradient id="paint0_linear" x1="84.005" y1="-9.968" x2="42.995" y2="2.613" gradientUnits="userSpaceOnUse"><stop stop-color="#FF7C56"/><stop offset="1" stop-color="#FF5D5D"/></linearGradient><linearGradient id="paint1_linear" x1="30.829" y1="67.127" x2="67.142" y2="103.799" gradientUnits="userSpaceOnUse"><stop stop-color="#FF7C56"/><stop offset="1" stop-color="#FF5D5D"/></linearGradient></defs></svg>