<svg width="205" height="112" fill="none" xmlns="http://www.w3.org/2000/svg"><path d="M166 88.816c17.673 0 32-14.327 32-32 0-17.673-14.327-32-32-32-17.673 0-32 14.327-32 32 0 17.673 14.327 32 32 32z" fill="#232323"/><path d="M166.271 36.816l-.271.902v26.166l.271.265 12.396-7.18-12.396-20.153z" fill="#343434"/><path d="M166 36.816l-12.667 20.153L166 64.15V36.816z" fill="#505050"/><path d="M166.154 66.75l-.154.184v9.44l.154.442 12.513-17.334-12.513 7.267z" fill="#3C3C3B"/><path d="M166 76.816V66.749l-12.667-7.267L166 76.816z" fill="#505050"/><path d="M166 64.15l12.667-7.161L166 51.482V64.15z" fill="#2E2E2E"/><path d="M153.333 56.989L166 64.149V51.482l-12.667 5.507z" fill="#393939"/><g filter="url(#filter0_f)"><path d="M166 86.15c16.2 0 29.333-13.134 29.333-29.334S182.2 27.482 166 27.482s-29.333 13.133-29.333 29.334c0 16.2 13.133 29.333 29.333 29.333z" stroke="#FF7671" stroke-width="1.5"/></g><path d="M166 86.354c16.314 0 29.538-13.225 29.538-29.538 0-16.314-13.224-29.539-29.538-29.539s-29.538 13.225-29.538 29.539c0 16.313 13.224 29.538 29.538 29.538z" stroke="#FF7671" stroke-width="1.5"/><g filter="url(#filter1_d)"><path d="M116 95.816c22.091 0 40-17.909 40-40 0-22.092-17.909-40-40-40s-40 17.908-40 40c0 22.091 17.909 40 40 40z" fill="#232323"/></g><path d="M115.5 92.816c20.158 0 36.5-16.342 36.5-36.5 0-20.159-16.342-36.5-36.5-36.5S79 36.157 79 56.316c0 20.158 16.342 36.5 36.5 36.5z" stroke="#FF7671" stroke-width="1.5"/><g filter="url(#filter2_f)"><path d="M115.5 92.816c20.158 0 36.5-16.342 36.5-36.5 0-20.159-16.342-36.5-36.5-36.5S79 36.157 79 56.316c0 20.158 16.342 36.5 36.5 36.5z" stroke="#FF7671" stroke-width="1.5"/></g><path d="M115.464 31.827l24.777 24.438-24.777 24.438-24.778-24.438 24.778-24.438z" fill="#505050"/><path d="M115.463 64.239l-24.798-7.976 24.798-24.437 24.798 24.437-24.798 7.976z" fill="#2E2E2E"/><path d="M99.29 54.669h11.322l4.851-5.317 5.391 5.317h11.321l-16.712-17.812-16.172 17.812z" fill="#646464"/><path opacity=".42" d="M115.463 80.701V31.826l24.777 24.437-24.777 24.438z" fill="#373737"/><g filter="url(#filter3_d)"><path d="M56.5 106.816c27.89 0 50.5-22.61 50.5-50.5s-22.61-50.5-50.5-50.5S6 28.426 6 56.316s22.61 50.5 50.5 50.5z" fill="#232323"/></g><path d="M56.5 102.608c25.566 0 46.292-20.726 46.292-46.292 0-25.566-20.726-46.292-46.292-46.292-25.566 0-46.292 20.726-46.292 46.292 0 25.566 20.726 46.292 46.292 46.292z" stroke="#FF7671" stroke-width="1.567"/><g filter="url(#filter4_f)"><path d="M56.5 102.608c25.566 0 46.292-20.726 46.292-46.292 0-25.566-20.726-46.292-46.292-46.292-25.566 0-46.292 20.726-46.292 46.292 0 25.566 20.726 46.292 46.292 46.292z" stroke="#FF7671" stroke-width="1.567"/></g><path d="M56.5 81.566c13.945 0 25.25-11.305 25.25-25.25s-11.305-25.25-25.25-25.25-25.25 11.305-25.25 25.25 11.305 25.25 25.25 25.25z" fill="#232323"/><path fill-rule="evenodd" clip-rule="evenodd" d="M80.323 48.911c0 11.896-9.527 21.54-21.279 21.54s-21.279-9.644-21.279-21.54c0-11.896 9.527-21.54 21.279-21.54s21.279 9.644 21.279 21.54zm-10.628-5.89c-.704.736-1.314 1.045-1.501 1.14l-.047.048c-4.106-.88-5.584-3.017-5.584-3.017 3.871-.023 7.367.903 9.924 2.47 0 0-1.384-.45-2.792-.64z" fill="#595858"/><path d="M73.988 42.451a12.02 12.02 0 0 1 2.323 7.125c0 3.111-1.267 5.985-3.425 8.312l1.314 4.964h3.988l4.2-4.821 1.125-7.054.235-4.203-4.153-4.75-5.607.427z" fill="#505050"/><path d="M72.485 59.395c2.472-2.471 3.999-5.867 3.999-9.614 0-2.219-.535-4.314-1.484-6.167" stroke="#232323" stroke-width="1.254"/><path d="M27.771 63.422l.727 2.921s8.587 17.835 27.918 24.462c0 0 17.588-7.6 25.4-20.496l-10.784-9.523s-5.161 4.156-12.833 4.156c-7.671 0-18.088-4.631-18.088-14.178s10.792-13.039 10.792-13.039l-4.598-1.14H34.55l-7.46 18.192.68 8.645z" fill="#505050"/><path d="M92.733 43.372c-.328-.332-8.699-10.615-34.81-19.711-.826-.572-1.273-.748-1.342-.53-24.254 6.261-36.153 19.419-36.153 20.241 0 .823 3.472 13.186 5.724 18.22.188.428 3.19 5.796 5.42 8.717-1.314-2.921-2.745-5.462-2.745-9.832 0-12.326 9.43-22.348 21.232-22.776.281 0 .586 0 .868.024l-2.816-2.85s11.332-1.923 25.877 6.982c0 0 .212.452 0 1.782 0 0 6.85 2.992 7.437 8.81.587 5.819-3.05 9.144-5.982 9.619 0 0 1.525-2.399-.821-3.681-.493-.285-1.08-.404-1.666-.38-4.48 0-4.997 5.177-4.997 5.177-.047.261-.047.523-.047.784 0 0-.75 7.576 12.575 7.433 0 0 6.757-7.742 8.54-14.7.656-2.565 1.126-4.489 1.43-5.914.752-2.019 1.479-4.992 2.183-7.154l.093-.26z" fill="#232323"/><path fill-rule="evenodd" clip-rule="evenodd" d="M57.308 22.198c3.707 1.236 21.56 7.653 35.684 20.005l.328.242-.07.411c0 .097-1.549 9.494-6.757 20.053-3.073 6.224-6.804 11.649-11.073 16.105-5.256 5.473-11.332 9.517-18.112 12.036l-.399.145-.422.17-.4-.145-.398-.146c-6.78-2.518-12.88-6.563-18.111-12.036-4.27-4.48-8-9.88-11.074-16.105-4.992-10.145-6.6-19.177-6.746-19.993a2.294 2.294 0 0 0-.01-.06l-.07-.411.304-.267C34.105 29.852 51.96 23.434 55.666 22.2l.82-.267.47.145.352.121zm17.08 55.799c4.175-4.36 7.812-9.663 10.815-15.742 4.504-9.13 6.217-17.34 6.569-19.205-14.476-12.52-32.798-18.769-35.285-19.592-2.51.823-20.81 7.072-35.285 19.592.352 1.89 2.041 10.099 6.569 19.253 3.003 6.08 6.64 11.359 10.815 15.718 5.185 5.4 11.191 9.348 17.9 11.794 6.71-2.446 12.716-6.418 17.901-11.818z" fill="#505050"/><defs><filter id="filter0_f" x="127.762" y="18.578" width="76.476" height="76.476" filterUnits="userSpaceOnUse" color-interpolation-filters="sRGB"><feFlood flood-opacity="0" result="BackgroundImageFix"/><feBlend in="SourceGraphic" in2="BackgroundImageFix" result="shape"/><feGaussianBlur stdDeviation="4.077" result="effect1_foregroundBlur"/></filter><filter id="filter1_d" x="72" y="11.816" width="88" height="88" filterUnits="userSpaceOnUse" color-interpolation-filters="sRGB"><feFlood flood-opacity="0" result="BackgroundImageFix"/><feColorMatrix in="SourceAlpha" values="0 0 0 0 0 0 0 0 0 0 0 0 0 0 0 0 0 0 127 0"/><feOffset/><feGaussianBlur stdDeviation="2"/><feColorMatrix values="0 0 0 0 0.0705882 0 0 0 0 0.0705882 0 0 0 0 0.0705882 0 0 0 1 0"/><feBlend in2="BackgroundImageFix" result="effect1_dropShadow"/><feBlend in="SourceGraphic" in2="effect1_dropShadow" result="shape"/></filter><filter id="filter2_f" x="70.095" y="10.911" width="90.81" height="90.81" filterUnits="userSpaceOnUse" color-interpolation-filters="sRGB"><feFlood flood-opacity="0" result="BackgroundImageFix"/><feBlend in="SourceGraphic" in2="BackgroundImageFix" result="shape"/><feGaussianBlur stdDeviation="4.077" result="effect1_foregroundBlur"/></filter><filter id="filter3_d" x="2" y="1.816" width="109" height="109" filterUnits="userSpaceOnUse" color-interpolation-filters="sRGB"><feFlood flood-opacity="0" result="BackgroundImageFix"/><feColorMatrix in="SourceAlpha" values="0 0 0 0 0 0 0 0 0 0 0 0 0 0 0 0 0 0 127 0"/><feOffset/><feGaussianBlur stdDeviation="2"/><feColorMatrix values="0 0 0 0 0.0705882 0 0 0 0 0.0705882 0 0 0 0 0.0705882 0 0 0 1 0"/><feBlend in2="BackgroundImageFix" result="effect1_dropShadow"/><feBlend in="SourceGraphic" in2="effect1_dropShadow" result="shape"/></filter><filter id="filter4_f" x=".903" y=".719" width="111.194" height="111.194" filterUnits="userSpaceOnUse" color-interpolation-filters="sRGB"><feFlood flood-opacity="0" result="BackgroundImageFix"/><feBlend in="SourceGraphic" in2="BackgroundImageFix" result="shape"/><feGaussianBlur stdDeviation="4.261" result="effect1_foregroundBlur"/></filter></defs></svg>