<svg width="117" height="117" viewBox="0 0 117 117" fill="none" xmlns="http://www.w3.org/2000/svg">
<g filter="url(#filter0_d)">
<path d="M58 112C87.8234 112 112 87.8234 112 58C112 28.1766 87.8234 4 58 4C28.1766 4 4 28.1766 4 58C4 87.8234 28.1766 112 58 112Z" fill="#232323"/>
</g>
<path d="M58.275 107.55C85.4888 107.55 107.55 85.4888 107.55 58.275C107.55 31.0612 85.4888 9 58.275 9C31.0612 9 9 31.0612 9 58.275C9 85.4888 31.0612 107.55 58.275 107.55Z" stroke="#FF7671" stroke-width="1.5"/>
<g filter="url(#filter1_f)">
<path d="M58.275 107.55C85.4888 107.55 107.55 85.4888 107.55 58.275C107.55 31.0612 85.4888 9 58.275 9C31.0612 9 9 31.0612 9 58.275C9 85.4888 31.0612 107.55 58.275 107.55Z" stroke="#FF7671" stroke-width="1.5"/>
</g>
<path d="M57.2758 25.6143L90.7254 58.6056L57.2758 91.5972L23.8262 58.6056L57.2758 25.6143Z" fill="#505050"/>
<path d="M57.2755 69.3712L23.7982 58.6042L57.2755 25.6133L90.7528 58.6042L57.2755 69.3712Z" fill="#2E2E2E"/>
<path d="M35.4426 56.4509H50.7257L57.2756 49.2729L64.5532 56.4509H79.8364L57.2756 32.4053L35.4426 56.4509Z" fill="#646464"/>
<path opacity="0.42" d="M57.2756 91.5951V25.6133L90.7246 58.6042L57.2756 91.5951H57.2756Z" fill="#373737"/>
<defs>
<filter id="filter0_d" x="0" y="0" width="116" height="116" filterUnits="userSpaceOnUse" color-interpolation-filters="sRGB">
<feFlood flood-opacity="0" result="BackgroundImageFix"/>
<feColorMatrix in="SourceAlpha" type="matrix" values="0 0 0 0 0 0 0 0 0 0 0 0 0 0 0 0 0 0 127 0"/>
<feOffset/>
<feGaussianBlur stdDeviation="2"/>
<feColorMatrix type="matrix" values="0 0 0 0 0.0705882 0 0 0 0 0.0705882 0 0 0 0 0.0705882 0 0 0 1 0"/>
<feBlend mode="normal" in2="BackgroundImageFix" result="effect1_dropShadow"/>
<feBlend mode="normal" in="SourceGraphic" in2="effect1_dropShadow" result="shape"/>
</filter>
<filter id="filter1_f" x="0.0951548" y="0.0951548" width="116.36" height="116.36" filterUnits="userSpaceOnUse" color-interpolation-filters="sRGB">
<feFlood flood-opacity="0" result="BackgroundImageFix"/>
<feBlend mode="normal" in="SourceGraphic" in2="BackgroundImageFix" result="shape"/>
<feGaussianBlur stdDeviation="4.07742" result="effect1_foregroundBlur"/>
</filter>
</defs>
</svg>
