<svg width="116" height="115" fill="none" xmlns="http://www.w3.org/2000/svg"><path opacity=".7" d="M51.412 14.028C23.506 14.028.96 36.635.96 64.44c0 27.806 22.547 50.413 50.453 50.413 27.828 0 50.453-22.607 50.453-50.412 0-27.806-22.625-50.413-50.453-50.413z" fill="#2E2E2E"/><path opacity=".7" fill-rule="evenodd" clip-rule="evenodd" d="M51.412 24.269c-22.23 0-40.204 17.959-40.204 40.172 0 22.213 17.974 40.172 40.204 40.172 22.231 0 40.205-17.96 40.205-40.172 0-22.213-17.974-40.172-40.205-40.172zM31.704 64.44c0-10.87 8.83-19.692 19.708-19.692 10.879 0 19.709 8.822 19.709 19.692 0 10.87-8.83 19.692-19.709 19.692s-19.708-8.822-19.708-19.692zm9.46 0c0 5.671 4.572 10.24 10.248 10.24A10.224 10.224 0 0 0 61.66 64.44c0-5.672-4.572-10.24-10.248-10.24a10.224 10.224 0 0 0-10.248 10.24zm-19.708 0c0 16.541 13.401 29.932 29.956 29.932S81.37 80.983 81.37 64.441c0-16.542-13.402-29.933-29.957-29.933S21.456 47.9 21.456 64.441z" fill="#414141"/><path d="M91.932 23.953c4.1 4.096 13.008 1.812 8.908 5.908L89.804 40.888c-4.02 4.096-10.721 4.096-14.82 0a10.453 10.453 0 0 1 0-14.808L86.02 15.052c4.02-4.096 1.813 4.805 5.912 8.901z" fill="#FF7671"/><g filter="url(#filter0_f)"><path d="M91.932 23.953c4.1 4.096 13.008 1.812 8.908 5.908L89.804 40.888c-4.02 4.096-10.721 4.096-14.82 0a10.453 10.453 0 0 1 0-14.808L86.02 15.052c4.02-4.096 1.813 4.805 5.912 8.901z" fill="url(#paint0_linear)"/></g><path d="M91.932 24.032c-1.183-1.182-1.813-2.678-2.207-4.254L72.46 36.95a10.332 10.332 0 0 0 2.444 3.938 9.725 9.725 0 0 0 4.02 2.442L96.11 26.16c-1.498-.394-3.074-1.024-4.178-2.127z" fill="#FF7671"/><path d="M95.716 20.172c.788.788.788 2.127 0 2.915L53.304 65.386c-.788.788-2.128.788-2.916 0-.789-.788-.789-2.127 0-2.914l42.411-42.378c.867-.788 2.129-.788 2.917.078z" fill="#7D7C7C"/><defs><filter id="filter0_f" x="58.317" y=".409" width="57.167" height="57.143" filterUnits="userSpaceOnUse" color-interpolation-filters="sRGB"><feFlood flood-opacity="0" result="BackgroundImageFix"/><feBlend in="SourceGraphic" in2="BackgroundImageFix" result="shape"/><feGaussianBlur stdDeviation="6.796" result="effect1_foregroundBlur"/></filter><linearGradient id="paint0_linear" x1="94.397" y1="-.444" x2="65.495" y2="14.555" gradientUnits="userSpaceOnUse"><stop stop-color="#FF7C56"/><stop offset="1" stop-color="#FF5D5D"/></linearGradient></defs></svg>