<svg width="113" height="113" fill="none" xmlns="http://www.w3.org/2000/svg"><path opacity=".9" fill-rule="evenodd" clip-rule="evenodd" d="M104.659 35.63l1.157 1.157-13.723 13.889-2.315 2.315-2.314-2.315-15.79-15.79-5.208 5.208 2.893 2.894L83.992 57.62a6.786 6.786 0 0 1 0 9.59L67.21 83.992a6.786 6.786 0 0 1-9.59 0L40.838 67.21l-.744-.744-5.208 5.208 4.216 4.216 1.654 1.653L51.75 88.538l1.157 1.157-13.806 13.806-2.314 2.315-2.315-2.315L0 68.946l1.157-1.075 12.649-12.648 2.314-2.315L32.406 69.11l5.173-5.16-12.035-12.035c-7.44-7.44-7.605-19.427-.33-26.702 7.275-7.275 19.262-7.11 26.702.33L63.98 37.608l5.214-5.202L52.908 16.12l1.157-1.157L66.715 2.315l1.157-1.158L69.028 0l23.726 23.726 1.57 1.57L104.66 35.63zm-40.68 1.978L37.58 63.95l2.515 2.516 26.372-26.372-2.486-2.486zM16.12 57.456l9.177 9.176-4.63 4.63-9.176-9.177 4.63-4.63zm2.315 16.12L9.176 64.4 4.63 68.945l9.176 9.26 4.63-4.63zM16.12 80.52l4.63-4.63 9.176 9.177-4.63 4.63-9.176-9.177zM27.611 92.01l9.177 9.177 4.629-4.63-9.176-9.176-4.63 4.63zm11.491-11.49l9.177 9.175-4.63 4.63-9.176-9.26 4.63-4.546zm-6.861 2.231l4.547-4.547-9.177-9.258-4.63 4.63 9.26 9.175zm68.946-45.964l-4.63 4.63-9.176-9.176 4.63-4.63 9.176 9.177zm-16.12-6.861l4.629-4.63-9.177-9.258-4.63 4.63 9.177 9.258zM69.028 4.629l9.176 9.177-4.63 4.629L64.4 9.259l4.63-4.63zm-6.862 6.862l-4.63 4.63 9.177 9.176 4.629-4.63-9.176-9.176zm6.861 16.12l4.63-4.629 9.176 9.259-4.63 4.63-9.175-9.26zm16.12 6.862l-4.629 4.63 9.176 9.175 4.63-4.629-9.176-9.176z" fill="#373636"/><g filter="url(#filter0_d)"><path d="M89.695 95.069a5.363 5.363 0 0 0 5.374-5.374 5.363 5.363 0 0 0-5.374-5.373 5.363 5.363 0 0 0-5.373 5.373 5.363 5.363 0 0 0 5.373 5.374z" fill="#FF736F"/></g><g filter="url(#filter1_df)"><path d="M89.695 95.069a5.363 5.363 0 0 0 5.374-5.374 5.363 5.363 0 0 0-5.374-5.373 5.363 5.363 0 0 0-5.373 5.373 5.363 5.363 0 0 0 5.373 5.374z" fill="url(#paint0_linear)"/></g><path d="M55.223 28.851c-7.44-7.44-19.428-7.605-26.702-.33-7.275 7.274-7.11 19.261.33 26.702l-3.306-3.307c-7.44-7.44-7.606-19.427-.331-26.702 7.275-7.275 19.262-7.11 26.702.33l3.307 3.307z" fill="#292828"/><g filter="url(#filter2_d)"><path d="M28.107 54.478l-2.562-2.562c-.248-.248-.414-.496-.662-.662l26.289-26.288c.248.248.496.413.661.661l2.563 2.563-26.289 26.288z" fill="#FF736F"/></g><g filter="url(#filter3_df)"><path d="M28.107 54.478l-2.562-2.562c-.248-.248-.414-.496-.662-.662l26.289-26.288c.248.248.496.413.661.661l2.563 2.563-26.289 26.288z" fill="url(#paint1_linear)"/></g><path d="M104.163 76.716c-6.862-6.861-18.6-6.282-26.206 1.24-7.606 7.606-8.185 19.262-1.24 26.124l27.446-27.364z" fill="#373636"/><defs><filter id="filter0_d" x="80.322" y="82.322" width="18.747" height="18.747" filterUnits="userSpaceOnUse" color-interpolation-filters="sRGB"><feFlood flood-opacity="0" result="BackgroundImageFix"/><feColorMatrix in="SourceAlpha" values="0 0 0 0 0 0 0 0 0 0 0 0 0 0 0 0 0 0 127 0"/><feOffset dy="2"/><feGaussianBlur stdDeviation="2"/><feColorMatrix values="0 0 0 0 0 0 0 0 0 0 0 0 0 0 0 0 0 0 0.5 0"/><feBlend in2="BackgroundImageFix" result="effect1_dropShadow"/><feBlend in="SourceGraphic" in2="effect1_dropShadow" result="shape"/></filter><filter id="filter1_df" x="67.197" y="67.197" width="44.997" height="44.997" filterUnits="userSpaceOnUse" color-interpolation-filters="sRGB"><feFlood flood-opacity="0" result="BackgroundImageFix"/><feColorMatrix in="SourceAlpha" values="0 0 0 0 0 0 0 0 0 0 0 0 0 0 0 0 0 0 127 0"/><feOffset dy="2"/><feGaussianBlur stdDeviation="2"/><feColorMatrix values="0 0 0 0 0 0 0 0 0 0 0 0 0 0 0 0 0 0 0.5 0"/><feBlend in2="BackgroundImageFix" result="effect1_dropShadow"/><feBlend in="SourceGraphic" in2="effect1_dropShadow" result="shape"/><feGaussianBlur stdDeviation="8.563" result="effect2_foregroundBlur"/></filter><filter id="filter2_d" x="20.883" y="22.966" width="37.513" height="37.513" filterUnits="userSpaceOnUse" color-interpolation-filters="sRGB"><feFlood flood-opacity="0" result="BackgroundImageFix"/><feColorMatrix in="SourceAlpha" values="0 0 0 0 0 0 0 0 0 0 0 0 0 0 0 0 0 0 127 0"/><feOffset dy="2"/><feGaussianBlur stdDeviation="2"/><feColorMatrix values="0 0 0 0 0 0 0 0 0 0 0 0 0 0 0 0 0 0 0.5 0"/><feBlend in2="BackgroundImageFix" result="effect1_dropShadow"/><feBlend in="SourceGraphic" in2="effect1_dropShadow" result="shape"/></filter><filter id="filter3_df" x="7.758" y="7.841" width="63.763" height="63.763" filterUnits="userSpaceOnUse" color-interpolation-filters="sRGB"><feFlood flood-opacity="0" result="BackgroundImageFix"/><feColorMatrix in="SourceAlpha" values="0 0 0 0 0 0 0 0 0 0 0 0 0 0 0 0 0 0 127 0"/><feOffset dy="2"/><feGaussianBlur stdDeviation="2"/><feColorMatrix values="0 0 0 0 0 0 0 0 0 0 0 0 0 0 0 0 0 0 0.5 0"/><feBlend in2="BackgroundImageFix" result="effect1_dropShadow"/><feBlend in="SourceGraphic" in2="effect1_dropShadow" result="shape"/><feGaussianBlur stdDeviation="8.563" result="effect2_foregroundBlur"/></filter><linearGradient id="paint0_linear" x1="92.382" y1="100.25" x2="82.02" y2="94.877" gradientUnits="userSpaceOnUse"><stop stop-color="#FF7C56"/><stop offset="1" stop-color="#FF5D5D"/></linearGradient><linearGradient id="paint1_linear" x1="47.018" y1="68.707" x2="18.561" y2="53.951" gradientUnits="userSpaceOnUse"><stop stop-color="#FF7C56"/><stop offset="1" stop-color="#FF5D5D"/></linearGradient></defs></svg>