<svg width="666" height="613" fill="none" xmlns="http://www.w3.org/2000/svg"><path fill="url(#paint0_linear)" d="M0 0h666v613H0z"/><mask id="a" maskUnits="userSpaceOnUse" x="0" y="0" width="666" height="613"><path fill="#fff" d="M0 0h666v613H0z"/></mask><g mask="url(#a)"><path stroke="#fff" d="M511.5 458.5h154v154h-154z"/></g><path clip-rule="evenodd" d="M630 586l-34.217-100h-13.566L548 586h14.624l16.115-48.854L589 505.068l13.963 43.643.383 1.162h-21.529l26.976 16.495L615.529 586H630z" stroke="#fff" stroke-width="1.5"/><path stroke="#fff" d="M511.5.5h154v458h-154zM-14.5.5h526v612h-526z"/><path d="M583.341 399.51v-1.251l7.916-2.249-7.383-2.4v-.957l7.383-2.392-7.916-2.249v-1.251l9.659 2.823v1.189l-7.226 2.359L593 395.49v1.197l-9.659 2.823zm0-20.609v-6.35h1.107v5.147h3.152v-4.682h1.114v4.682h3.144v-5.147H593v6.35h-9.659zm0-14.64v-1.203h8.517v-4.328H593v5.531h-9.659zm9.775-16.767c0 .962-.214 1.78-.642 2.454a4.015 4.015 0 0 1-1.771 1.518c-.747.337-1.595.506-2.543.506-.952 0-1.8-.169-2.543-.506a4.019 4.019 0 0 1-1.763-1.525c-.429-.679-.643-1.506-.643-2.481 0-.953.226-1.771.677-2.454.451-.684 1.114-1.208 1.989-1.572l.451 1.128c-.679.218-1.176.574-1.49 1.066-.319.488-.479 1.103-.479 1.846 0 .724.158 1.335.472 1.832.315.492.754.861 1.319 1.107.561.242 1.215.362 1.962.362.752 0 1.418-.116 1.996-.348a2.945 2.945 0 0 0 1.361-1.08c.332-.493.499-1.11.499-1.853 0-.724-.16-1.326-.479-1.805-.319-.483-.822-.868-1.51-1.155l.458-1.114c.875.378 1.54.916 1.996 1.613.455.693.683 1.513.683 2.461zm0-15.803c0 .985-.223 1.814-.67 2.489a4.096 4.096 0 0 1-1.791 1.51c-.752.333-1.581.499-2.488.499s-1.734-.166-2.481-.499a4.096 4.096 0 0 1-1.791-1.51c-.447-.675-.67-1.504-.67-2.489 0-.989.223-1.82.67-2.495a4.078 4.078 0 0 1 1.791-1.517c.747-.338 1.574-.506 2.481-.506.907 0 1.736.168 2.488.506a4.078 4.078 0 0 1 1.791 1.517c.447.675.67 1.506.67 2.495zm-1.073 0c0-.738-.173-1.349-.52-1.832a3.015 3.015 0 0 0-1.387-1.073c-.584-.228-1.24-.342-1.969-.342-.725 0-1.376.114-1.955.342a3.022 3.022 0 0 0-1.395 1.073c-.346.483-.519 1.094-.519 1.832 0 .734.173 1.343.519 1.826.347.483.812.838 1.395 1.066.579.228 1.23.342 1.955.342.725 0 1.379-.114 1.962-.342a3.027 3.027 0 0 0 1.394-1.066c.347-.483.52-1.092.52-1.826zm-8.702-22.057H593v1.162h-8.032l7.225 2.912v1.176l-7.225 2.912H593v1.162h-9.659v-1.647l7.506-3.015-7.506-3.015v-1.647zm0-8.871v-6.351h1.107v5.148h3.152v-4.683h1.114v4.683h3.144v-5.148H593v6.351h-9.659zm0-26.739v-.957L593 269.39v1.305l-2.256.807v4.067l2.256.821v1.312l-9.659-3.678zm6.371-2.146l-4.649 1.661 4.649 1.654v-3.315zm-6.371-10.266v-2.843c0-.62.109-1.176.328-1.668a2.64 2.64 0 0 1 .943-1.169c.41-.283.9-.424 1.47-.424.624 0 1.155.18 1.593.54.437.36.74.845.909 1.456l4.416-2.68v1.374l-4.3 2.475c.009.127.014.333.014.615v1.121H593v1.203h-9.659zm4.388-2.946c-.018-.624-.168-1.107-.451-1.449-.282-.342-.674-.513-1.175-.513-.525 0-.935.182-1.231.547-.301.365-.451.868-.451 1.511v1.634h3.308v-1.73zm-4.388-14.251v-.957L593 239.78v1.306l-2.256.807v4.067l2.256.82v1.313l-9.659-3.678zm6.371-2.146l-4.649 1.661 4.649 1.654v-3.315zm3.404-13.664c0 .962-.214 1.78-.642 2.455a4.02 4.02 0 0 1-1.771 1.517c-.747.337-1.595.506-2.543.506-.952 0-1.8-.169-2.543-.506a3.977 3.977 0 0 1-1.763-1.517c-.429-.679-.643-1.509-.643-2.489 0-.952.226-1.768.677-2.447.451-.684 1.114-1.208 1.989-1.572l.451 1.073c-1.372.483-2.057 1.47-2.057 2.96 0 .725.164 1.335.492 1.832a3 3 0 0 0 1.36 1.107c.574.242 1.237.363 1.989.363s1.424-.116 2.017-.349a2.997 2.997 0 0 0 1.394-1.08c.342-.492.513-1.11.513-1.853 0-.824-.212-1.497-.636-2.016-.428-.52-1.046-.836-1.852-.95l-.629-.028v2.297h-.978v-3.479H593v.957l-1.613.102c.551.301.977.718 1.278 1.251.301.533.451 1.156.451 1.866zm0-16.541c0 .985-.223 1.814-.67 2.489a4.096 4.096 0 0 1-1.791 1.51c-.752.333-1.581.499-2.488.499s-1.734-.166-2.481-.499a4.096 4.096 0 0 1-1.791-1.51c-.447-.675-.67-1.504-.67-2.489 0-.988.223-1.82.67-2.495a4.078 4.078 0 0 1 1.791-1.517c.747-.337 1.574-.506 2.481-.506.907 0 1.736.169 2.488.506a4.078 4.078 0 0 1 1.791 1.517c.447.675.67 1.507.67 2.495zm-1.073 0c0-.738-.173-1.349-.52-1.832a3.015 3.015 0 0 0-1.387-1.073c-.584-.228-1.24-.342-1.969-.342-.725 0-1.376.114-1.955.342a3.022 3.022 0 0 0-1.395 1.073c-.346.483-.519 1.094-.519 1.832 0 .734.173 1.343.519 1.826.347.483.812.838 1.395 1.066.579.228 1.23.342 1.955.342.725 0 1.379-.114 1.962-.342a3.027 3.027 0 0 0 1.394-1.066c.347-.483.52-1.092.52-1.826zm-8.702-19.685H593v1.244l-7.704 4.546H593v1.162h-9.659v-1.23l7.683-4.56h-7.683v-1.162zm9.775-22.24c0 .984-.223 1.813-.67 2.488a4.105 4.105 0 0 1-1.791 1.511c-.752.332-1.581.499-2.488.499s-1.734-.167-2.481-.499a4.105 4.105 0 0 1-1.791-1.511c-.447-.675-.67-1.504-.67-2.488 0-.989.223-1.821.67-2.495a4.087 4.087 0 0 1 1.791-1.518c.747-.337 1.574-.506 2.481-.506.907 0 1.736.169 2.488.506a4.087 4.087 0 0 1 1.791 1.518c.447.674.67 1.506.67 2.495zm-1.073 0c0-.739-.173-1.349-.52-1.832a3.01 3.01 0 0 0-1.387-1.074c-.584-.227-1.24-.341-1.969-.341-.725 0-1.376.114-1.955.341a3.017 3.017 0 0 0-1.395 1.074c-.346.483-.519 1.093-.519 1.832 0 .733.173 1.342.519 1.825.347.483.812.838 1.395 1.066.579.228 1.23.342 1.955.342.725 0 1.379-.114 1.962-.342a3.027 3.027 0 0 0 1.394-1.066c.347-.483.52-1.092.52-1.825zm-8.702-19.686H593v1.244l-7.704 4.546H593v1.162h-9.659v-1.23l7.683-4.56h-7.683v-1.162zm0-8.878v-6.35h1.107v5.147h3.152v-4.683h1.114v4.683h3.144v-5.147H593v6.35h-9.659zm9.775-27.989c0 .962-.214 1.78-.642 2.454a4.021 4.021 0 0 1-1.771 1.518c-.747.337-1.595.505-2.543.505-.952 0-1.8-.168-2.543-.505a4.019 4.019 0 0 1-1.763-1.525c-.429-.679-.643-1.506-.643-2.481 0-.953.226-1.771.677-2.454.451-.684 1.114-1.208 1.989-1.573l.451 1.128c-.679.219-1.176.575-1.49 1.067-.319.487-.479 1.103-.479 1.845 0 .725.158 1.336.472 1.832.315.493.754.862 1.319 1.108.561.241 1.215.362 1.962.362.752 0 1.418-.116 1.996-.348a2.94 2.94 0 0 0 1.361-1.081c.332-.492.499-1.109.499-1.852 0-.725-.16-1.326-.479-1.805-.319-.483-.822-.868-1.51-1.155l.458-1.114c.875.378 1.54.916 1.996 1.613.455.693.683 1.513.683 2.461zm-9.775-12.064v-2.843c0-.62.109-1.176.328-1.668.214-.497.529-.887.943-1.17.41-.282.9-.423 1.47-.423.624 0 1.155.18 1.593.54.437.36.74.845.909 1.456l4.416-2.68v1.374l-4.3 2.475c.009.128.014.333.014.615v1.121H593v1.203h-9.659zm4.388-2.946c-.018-.624-.168-1.107-.451-1.449-.282-.342-.674-.513-1.175-.513-.525 0-.935.182-1.231.547-.301.365-.451.868-.451 1.51v1.635h3.308v-1.73zm-4.388-11.708v-6.35h1.107v5.147h3.152v-4.683h1.114v4.683h3.144v-5.147H593v6.35h-9.659zm0-13.622v-1.25l7.916-2.25-7.383-2.4v-.956l7.383-2.393-7.916-2.249v-1.25L593 63.32v1.19l-7.226 2.358L593 69.227v1.196l-9.659 2.823z" fill="#fff"/><path d="M383.316 275.551l-3.544-29.784 11.622-2.107-8.078 31.891z" fill="#363636" opacity=".01"/><path d="M390.303 243.391l1.411.396c-4.317 17.342-6.826 27.374-7.527 30.095-.701 2.722-1.293 4.082-1.776 4.082l-2.391-31.842 1.232-.087 1.883 26.642 7.168-29.286z" fill="#fff"/><path d="M382.739 277.521l-14.069-13.42-6.794-7.24-14.204-7.163-30.166 2.022M200.607 440.549l55.43-63.617M254.03 379.166v100.512" stroke="#fff" stroke-width="1.36"/><path d="M368.438 264.024h-32.585l-71.016 118.3-8.646-5.392-33.041-45.286" stroke="#fff" stroke-width="1.36"/><path d="M269.006 474.591l37.673-42.36-35.743-59.843M212.497 205.49l36.129-22.643 45.393-5.7 48.944 18.485 10.344 16.02" stroke="#fff" stroke-width="1.36"/><path fill-rule="evenodd" clip-rule="evenodd" d="M235.375 275.401l-23.009-70.581-96.284 107.406 118.788-35.695.505-.492v-.638zm-23.52-68.163l22.246 68.237-114.172 34.308 91.926-102.545z" fill="#fff"/><path d="M198.446 449.946l36.438-174.369" stroke="#fff" stroke-width="1.36"/><path clip-rule="evenodd" d="M235.309 275.346l82.177-23.338 12.661-29.883-15.13-4.004-79.708 57.225z" stroke="#fff" stroke-width="1.36"/><path d="M299.808 229.057l-17.524-4.004-2.084-7.086-14.822-6.084" stroke="#fff" stroke-width="1.36"/><path clip-rule="evenodd" d="M103.339 330.722l14.203-19.101-4.632 88.725-13.277-7.086 3.706-62.538z" stroke="#fff" stroke-width="1.36"/><path d="M285.836 346.741h124.446M316.252 296.68l37.827 50.061M306.37 432.231l51.106-10.32M212.651 205.336l102.366 12.631M315.171 217.967l38.136-6.316 24.086 7.394 13.432 24.337-10.344 2.774-19.146-20.18-31.497-3.851" stroke="#fff" stroke-width="1.36"/><path fill-rule="evenodd" clip-rule="evenodd" d="M256.186 493.888l.138-.332.103.245L417.613 398.6V164.092l-161.42-43.868-.007-.024L95 164.092V398.6l161.186 95.288zm150.074-101.74l-149.954 88.667-149.954-88.667V172.74l149.954-40.834L406.26 172.74v219.408z" fill="url(#paint1_linear)"/><defs><linearGradient id="paint0_linear" x1="499.5" y1="-295.534" x2="-119.027" y2="52.935" gradientUnits="userSpaceOnUse"><stop stop-color="#FF7C56"/><stop offset="1" stop-color="#FF5D5D"/></linearGradient><linearGradient id="paint1_linear" x1="-238.328" y1="90.624" x2="-238.328" y2="802.719" gradientUnits="userSpaceOnUse"><stop stop-color="#FF997B"/><stop offset="1" stop-color="#EF6590"/><stop offset="1" stop-color="#EE6293"/></linearGradient></defs></svg>