<svg width="28" height="23" viewBox="0 0 28 23" fill="none" xmlns="http://www.w3.org/2000/svg">
<path d="M26.3185 12.0277H1.39394C1.17648 12.0277 1 11.8452 1 11.6203C1 11.3954 1.17648 11.2129 1.39394 11.2129H26.3185C26.5359 11.2129 26.7124 11.3954 26.7124 11.6203C26.7124 11.8452 26.5359 12.0277 26.3185 12.0277Z" fill="white" stroke="white"/>
<path d="M16.4408 22.2424C16.34 22.2424 16.2391 22.2025 16.1619 22.1235C16.0083 21.9646 16.0083 21.7063 16.1619 21.5474L25.7614 11.6197L16.1619 1.69524C16.0083 1.53635 16.0083 1.27806 16.1619 1.11917C16.3156 0.960278 16.5653 0.960278 16.7189 1.11917L26.5966 11.3312C26.6706 11.4078 26.7116 11.5113 26.7116 11.6197C26.7116 11.7281 26.6699 11.8315 26.5966 11.9081L16.7189 22.1226C16.6425 22.2025 16.5417 22.2424 16.4408 22.2424Z" fill="white" stroke="white"/>
</svg>
