<svg width="41" height="33" viewBox="0 0 41 33" fill="none" xmlns="http://www.w3.org/2000/svg">
<path d="M23.9983 21.4619C26.354 20.4868 28.2137 19.1596 29.5764 17.4797C30.939 15.8001 31.6203 13.9711 31.6203 11.9925C31.6203 10.0138 30.939 8.18456 29.5759 6.50494C28.2133 4.82531 26.354 3.49793 23.998 2.52264C21.642 1.5475 19.0795 1.06012 16.3101 1.06012C13.5409 1.06012 10.9784 1.5478 8.62229 2.52264C6.26637 3.49785 4.40694 4.82524 3.0443 6.50494C1.68151 8.18486 1 10.0138 1 11.9925C1 13.6863 1.51546 15.2813 2.54477 16.7759C3.574 18.2702 4.98767 19.5302 6.78533 20.5549C6.64045 20.8968 6.49184 21.2096 6.33957 21.4947C6.18723 21.7793 6.00617 22.0531 5.79578 22.3166C5.58555 22.5803 5.42262 22.7865 5.30653 22.9355C5.19052 23.0849 5.00207 23.2954 4.74095 23.5653C4.47991 23.8358 4.3131 24.0138 4.24073 24.0989C4.24073 24.0847 4.21171 24.1169 4.15367 24.1952C4.09555 24.2735 4.06295 24.3089 4.05579 24.3022C4.04847 24.2945 4.01945 24.3301 3.96872 24.4084C3.91799 24.4868 3.89255 24.5259 3.89255 24.5259L3.83809 24.6323C3.81661 24.6753 3.80183 24.7174 3.79467 24.7604C3.78736 24.8028 3.7837 24.8493 3.7837 24.899C3.7837 24.9487 3.79086 24.9947 3.80564 25.0377C3.83466 25.2225 3.91799 25.3717 4.05571 25.4861C4.19335 25.5998 4.34181 25.6565 4.50147 25.6565H4.56675C5.29152 25.5569 5.91507 25.4431 6.43692 25.3148C8.66967 24.7457 10.6851 23.8343 12.4828 22.5818C13.7876 22.8096 15.0635 22.9234 16.3102 22.9234C19.0796 22.9244 21.6424 22.4371 23.9983 21.4619Z" stroke="white"/>
<path d="M38.4273 22.2517C39.457 20.7643 39.9715 19.167 39.9715 17.4587C39.9715 15.7076 39.4271 14.0696 38.3402 12.5467C37.2527 11.0239 35.7736 9.75679 33.9035 8.74612C34.2367 9.81362 34.4035 10.8954 34.4035 11.9917C34.4035 13.899 33.9184 15.7068 32.9464 17.4151C31.975 19.123 30.5831 20.6317 28.7709 21.9415C27.089 23.1372 25.1752 24.055 23.0293 24.6958C20.884 25.3361 18.6439 25.6567 16.3096 25.6567C15.8748 25.6567 15.2368 25.6285 14.396 25.5716C17.31 27.4502 20.7317 28.3899 24.6606 28.3899C25.9076 28.3899 27.1833 28.2758 28.4883 28.0481C30.286 29.3011 32.3015 30.2117 34.5341 30.7815C35.056 30.9099 35.6795 31.0236 36.4044 31.1231C36.5783 31.1374 36.7381 31.0875 36.883 30.9736C37.028 30.8598 37.1223 30.7036 37.1656 30.5045C37.1588 30.4191 37.1656 30.3722 37.1875 30.3654C37.2089 30.3586 37.2052 30.3121 37.1765 30.2269C37.1479 30.1413 37.1332 30.0986 37.1332 30.0986L37.079 29.9921C37.0639 29.964 37.0394 29.9246 37.0029 29.8749C36.9666 29.8255 36.9378 29.7894 36.9158 29.7682C36.8945 29.7469 36.8621 29.7111 36.8183 29.6617C36.7751 29.6123 36.7459 29.58 36.7313 29.5657C36.6588 29.4803 36.4922 29.3024 36.2313 29.0318C35.9701 28.7616 35.7819 28.5517 35.6659 28.4023C35.5499 28.2528 35.3868 28.0465 35.1766 27.7829C34.9665 27.5198 34.7851 27.2457 34.6328 26.9609C34.4806 26.6763 34.332 26.363 34.187 26.0216C35.9849 24.9958 37.3982 23.7397 38.4273 22.2517Z" stroke="white"/>
</svg>
