<svg width="38" height="30" viewBox="0 0 38 30" fill="none" xmlns="http://www.w3.org/2000/svg">
<path d="M35.4075 5.80467L36.4122 4.38301L34.8062 5.05485C34.1915 5.31203 33.554 5.52747 32.8965 5.69762C33.6248 4.9483 34.1873 4.04971 34.5264 3.05413L34.946 1.82192L33.8094 2.45634C32.5665 3.15004 31.2013 3.66437 29.7483 3.9627C28.3862 2.68836 26.516 1.90793 24.459 1.90793C20.3296 1.90793 16.9316 5.07578 16.9316 9.04067C16.9316 9.36953 16.9547 9.69437 17.0001 10.0129C11.5594 9.58772 6.75879 7.0574 3.50903 3.29369L3.06402 2.7783L2.7055 3.3572C2.05238 4.41177 1.68016 5.64228 1.68016 6.95503C1.68016 8.77952 2.4019 10.4402 3.58136 11.6977C3.15158 11.5707 2.74094 11.4033 2.35457 11.2008L1.6224 10.8169V11.6436V11.7265C1.6224 14.4102 3.18177 16.7311 5.46739 17.9499C5.19933 17.9322 4.93627 17.8985 4.67637 17.8496L3.83573 17.6917L4.11053 18.5017C4.93329 20.9269 7.0787 22.7706 9.72218 23.2973C7.61222 24.556 5.10774 25.2842 2.41995 25.2842C1.87175 25.2842 1.33075 25.2529 0.796864 25.1961L0.484689 26.1208C3.67147 28.0528 7.45334 29.1782 11.5152 29.1782C24.75 29.1782 32.008 18.8126 32.008 9.80259H32.0082L32.0078 9.78887L31.9917 9.20167C33.3259 8.26513 34.4846 7.11067 35.4075 5.80467Z" stroke="white"/>
</svg>
